<svg 
    xmlns="http://www.w3.org/2000/svg"  
    version="1.1" 
    x="0px" 
    y="0px" 
    viewBox="0 0 100 100" 
    overflow="visible" >
    <polygon 
    fill="#000000" 
    points="90.756,41.216 90.717,41.188 90.775,41.328 "/>
    <polygon 
        fill="#000000" 
        points="91.441,45.556 90.79,41.421 17.4,70.827 0,46.707 0,49.283 0.02,49.312 17.337,73.733   17.417,73.704 80.728,49.63 84.132,52.625 85.477,60.019 88.557,59.068 87.776,46.95 "/>
    <path fill="#fff" d="M41.402,8.884c-0.045,0.003-0.105,0.008-0.154,0.008C41.282,8.892,41.333,8.889,41.402,8.884z"/>
    <path fill="#000000" d="M41.456,8.883c-0.023,0.001-0.033,0.001-0.053,0.001C41.431,8.884,41.456,8.883,41.456,8.883z"/>
    <path fill="#000000" d="M41.248,8.892C41.146,8.896,41.177,8.895,41.248,8.892L41.248,8.892z"/>
    <path fill="#000000" d="M50.218,15.887c0.211-1.575,1.723-2.882,1.442-4.597c-0.3,0.326-2.214-0.191-2.588-0.249  c-1.044-0.157-2.085-0.331-3.125-0.512c-1.565-0.274-2.958-1.229-4.491-1.646c-0.864,0.039-0.493,4.685-0.736,5.323l-0.773,2.812  c-0.147,0.632-0.617,1.21-1.094,1.771c0.688,0.359,1.314,0.779,2.078,0.894c1.056,0.157,2.099,0.467,3.126,0.754  c0.616,0.174,4.739,1.849,5.287,1.388c0.445-0.374,0.027-1.821,0.198-2.394C49.886,18.281,50.059,17.073,50.218,15.887z"/>
    <path fill="#000000" d="M64.992,23.002l-0.055,0.019l-64.7,23.187l17.333,24.028l72.913-29.215L64.992,23.002z M34.573,45.734  c0.249-0.044,0.416-0.983,0.519-1.889c0.077-0.66,0.118-1.302,0.133-1.562c0.671-0.35,3.476,0.156,4.205,0.297  c-0.018,0.036-0.037,0.073-0.055,0.109c-0.479,0.886-1.091,1.722-1.683,2.528l-0.169,0.23c-0.015,0.023-0.071,0.097-0.149,0.198  c-0.131,0.172-0.244,0.322-0.343,0.452c-0.207,0.274-0.349,0.466-0.445,0.601c-0.01-0.003-0.019-0.006-0.03-0.01l-0.032,0.074  c0.006,0.002,0.008,0.002,0.013,0.004c-0.018,0.026-0.027,0.04-0.041,0.061l-0.094,0.216l0.621,0.491  c-1.115-0.176-2.312-1.03-2.326-1.041c-0.171-0.134-0.26-0.275-0.265-0.423C34.425,45.899,34.539,45.769,34.573,45.734z   M38.354,51.972c-0.435-0.513-7.35-1.066-7.35-1.066c-1.461,0.118,0.12-1.66,0.12-1.66c0.157-2.487,1.737-4.307,1.737-4.307  c0.265-0.995,1.005-0.624,1.372-0.363c-0.112,0.979-0.274,1.866-0.462,1.866h-0.016l-0.011,0.011  c-0.007,0.006-0.184,0.169-0.174,0.406c0.006,0.171,0.105,0.333,0.296,0.483c0.061,0.044,1.331,0.95,2.495,1.074l2.76,2.19  l-0.002,0.008l0.006,0.001c0.003,0,0.004,0.001,0.006,0.001c0,0.002,0,0.002,0,0.003c0.002,0.036,0.043,0.049,0.089,0.061  l0.084,0.025C39.322,52.83,38.354,51.972,38.354,51.972z M46.423,48.595c-0.278,0.672-0.603,1.456-0.947,2.215  c-0.112,0.248-0.233,0.512-0.364,0.765c-0.012,0.021-0.024,0.046-0.036,0.072c-0.045,0.094-0.1,0.212-0.174,0.259l-0.018,0.012  v0.022c0.001,0.143-0.018,0.61-0.332,0.656c-0.026,0.004-0.053,0.006-0.08,0.006c-0.328,0-0.599-0.307-0.815-0.553  c-0.031-0.035-0.06-0.067-0.089-0.101c-0.532-0.584-0.985-1.033-1.423-1.41c-0.107-0.093-0.195-0.175-0.271-0.247  c-0.235-0.218-0.388-0.36-0.74-0.484c-0.04-0.015-0.082-0.028-0.128-0.043l-2.673-2.12L38.276,47.6l-0.056-0.045l-0.7-0.556  c0.018-0.03,0.055-0.084,0.105-0.155l-0.004-0.001l0.093-0.119c0,0-0.001-0.001-0.002-0.001c0.117-0.162,0.271-0.367,0.416-0.561  c0.139-0.184,0.269-0.357,0.354-0.468c0.079-0.104,0.134-0.177,0.15-0.199l0.168-0.229c0.593-0.811,1.207-1.647,1.688-2.538  c0.024-0.044,0.045-0.089,0.066-0.133c0.006-0.012,0.012-0.024,0.017-0.036c0.006-0.013,0.013-0.025,0.018-0.036  c0.007-0.014,0.013-0.026,0.018-0.039c0.063-0.138,0.122-0.267,0.21-0.39c0.294-0.411,0.562-0.727,0.846-0.987  c0.239-0.218,0.552-0.471,0.861-0.471c0.065,0,0.127,0.011,0.186,0.032c0.175,0.068,0.278,0.235,0.379,0.397  c0.034,0.054,0.069,0.11,0.106,0.162c0.61,0.846,1.238,1.621,1.868,2.307l0.088,0.096c0.681,0.741,1.527,1.664,2.523,1.859  C47.264,46.535,46.842,47.579,46.423,48.595z M60.647,41.189c-3.483,0-6.305-1.628-6.305-3.636c0-2.01,2.822-3.637,6.305-3.637  c3.481,0,6.303,1.627,6.303,3.637C66.951,39.562,64.129,41.189,60.647,41.189z"/>
</svg>